<svg width="80" height="80" viewBox="0 0 80 80" fill="none" xmlns="http://www.w3.org/2000/svg">
<path d="M33.2901 36.1621C33.4432 36.2248 33.6072 36.2565 33.7726 36.2553C33.938 36.2542 34.1015 36.2202 34.2537 36.1554C34.4058 36.0906 34.5436 35.9963 34.6591 35.8778C34.7745 35.7594 34.8653 35.6192 34.9262 35.4654C34.9871 35.3116 35.0168 35.1473 35.0137 34.9819C35.0106 34.8165 34.9747 34.6534 34.9081 34.502C34.8415 34.3506 34.7455 34.2139 34.6257 34.0999C34.5059 33.9859 34.3646 33.8968 34.2101 33.8377C31.3153 32.6916 27.6008 32.0605 23.7501 32.0605C19.8995 32.0605 16.185 32.6916 13.2901 33.8377C13.1356 33.8968 12.9944 33.9859 12.8746 34.0999C12.7547 34.2139 12.6588 34.3506 12.5922 34.502C12.5256 34.6534 12.4897 34.8165 12.4865 34.9819C12.4834 35.1473 12.5132 35.3116 12.5741 35.4654C12.6349 35.6192 12.7257 35.7594 12.8412 35.8778C12.9566 35.9963 13.0944 36.0906 13.2466 36.1554C13.3988 36.2202 13.5623 36.2542 13.7277 36.2553C13.8931 36.2565 14.0571 36.2248 14.2101 36.1621C16.8195 35.1293 20.2073 34.5605 23.7501 34.5605C27.2929 34.5605 30.6809 35.1293 33.2901 36.1621Z" fill="#37424D"/>
<path d="M65 2.5H60C56.3491 2.5 53.1855 6.47563 50.8512 13.9969C49.745 17.5617 48.8937 21.7228 48.3258 26.25H22.5V26.2684C17.455 26.402 12.7366 27.3403 9.10219 28.948C4.84469 30.8311 2.5 33.4586 2.5 36.3464C2.5 38.8294 4.26828 41.1553 7.5 42.9505V65.9452C5.60137 67.4643 4.30373 69.6081 3.83828 71.9947C3.70429 72.6686 3.72169 73.3638 3.88923 74.0301C4.05677 74.6965 4.37025 75.3173 4.80703 75.8477C5.2287 76.3638 5.7598 76.7798 6.36191 77.0655C6.96402 77.3513 7.62211 77.4997 8.28859 77.5H54.2114C55.2245 77.5002 56.2077 77.1571 57.0008 76.5267C57.8794 77.1463 58.925 77.4856 60 77.5H65C68.6509 77.5 71.8145 73.5244 74.1488 66.0031C76.3098 59.0397 77.5 49.8048 77.5 40C77.5 30.1952 76.3098 20.9603 74.1488 13.9969C71.8145 6.47563 68.6509 2.5 65 2.5ZM8.28859 75C7.99126 74.9991 7.69784 74.9321 7.42954 74.8039C7.16124 74.6758 6.92476 74.4896 6.73719 74.2589C6.53546 74.0131 6.39085 73.7256 6.31382 73.4171C6.23678 73.1087 6.22923 72.7869 6.29172 72.4752C6.53169 71.2307 7.074 70.0644 7.87088 69.0789C8.66776 68.0934 9.69476 67.319 10.8614 66.8239C10.5209 67.7925 10.2665 68.7892 10.1009 69.8025C9.79414 71.6063 10.1713 73.4596 11.1588 75H8.28859ZM16.25 75H15.5252C14.7863 75 14.072 74.6391 13.5159 73.9844C12.6936 73.0164 12.3392 71.6042 12.568 70.2067C13.193 66.3861 15.1773 63.188 17.8698 61.4372C17.4011 63.3874 17.3741 65.4178 17.7909 67.3798L19.2909 74.5205C19.3262 74.6832 19.3724 74.8433 19.4294 74.9997L16.25 75ZM19.2094 58.0395C16.3584 58.9745 13.9169 61.0652 12.2444 63.8614C11.4746 63.9773 10.7212 64.184 10 64.4772V42.197C10 41.9651 9.93549 41.7377 9.81366 41.5404C9.69183 41.343 9.51749 41.1835 9.31016 41.0795C6.53125 39.6864 5 38.0055 5 36.3464C5 34.535 6.86391 32.6719 10.1136 31.2344C13.7352 29.6322 18.5781 28.75 23.75 28.75C28.9219 28.75 33.7656 29.6322 37.3864 31.2344C40.6364 32.6719 42.5 34.5352 42.5 36.3466C42.5 38.0056 40.9688 39.6866 38.1898 41.0797C37.9825 41.1836 37.8082 41.3432 37.6864 41.5405C37.5646 41.7378 37.5 41.9651 37.5 42.197V52.5772C36.55 52.125 35.5485 51.7902 34.5175 51.5802C32.3616 51.1377 30.1384 51.1377 27.9825 51.5802C26.2976 51.9232 24.6979 52.5983 23.2767 53.566C21.8555 54.5338 20.6412 55.7749 19.7047 57.2169C19.528 57.4859 19.3653 57.7614 19.2094 58.0395ZM42.2623 66.8653L40.7623 74.007C40.7024 74.2873 40.5483 74.5386 40.3258 74.7192C40.1033 74.8998 39.8257 74.9989 39.5391 75H22.9609C22.6743 74.9989 22.3967 74.8998 22.1742 74.7192C21.9517 74.5386 21.7976 74.2873 21.7377 74.007L20.2377 66.8653C19.9347 65.4516 19.9163 63.9918 20.1836 62.5709C20.4508 61.1501 20.9984 59.7967 21.7942 58.5897C22.5504 57.4238 23.5312 56.4201 24.6794 55.6371C25.8276 54.8542 27.1201 54.3078 28.4817 54.0297C30.3078 53.6549 32.191 53.6549 34.017 54.0297C35.3786 54.3078 36.6712 54.8542 37.8194 55.6371C38.9675 56.4201 39.9483 57.4238 40.7045 58.5897C41.5006 59.7966 42.0484 61.15 42.3158 62.5708C42.5833 63.9917 42.5651 65.4516 42.2623 66.8653ZM48.9844 73.9844C48.4277 74.6395 47.7141 75 46.9752 75H43.0705C43.1274 74.8436 43.1736 74.6836 43.2089 74.5209L44.7089 67.3794C45.126 65.4174 45.0993 63.387 44.6308 61.4367C47.3234 63.1867 49.3072 66.3858 49.9327 70.2064C50.1608 71.6039 49.8064 73.0156 48.9844 73.9844ZM43.2906 58.0395C43.1344 57.7614 42.972 57.4859 42.7953 57.2169C42.0313 56.0521 41.0879 55.0154 40 54.1453V42.9505C43.2317 41.1553 45 38.8294 45 36.3464C45 33.4586 42.6553 30.8308 38.3978 28.948C38.2444 28.88 38.0853 28.8155 37.9291 28.75H48.0455C47.6866 32.3412 47.5 36.1258 47.5 40C47.5 48.8367 48.4578 57.1534 50.2188 63.7998C48.5477 61.0342 46.1206 58.9677 43.2906 58.0395ZM55.7628 74.2583C55.5753 74.4891 55.3389 74.6754 55.0705 74.8037C54.8022 74.9319 54.5088 74.999 54.2114 75H51.3413C52.3287 73.4596 52.7059 71.6062 52.3991 69.8023C52.2335 68.7891 51.979 67.7925 51.6386 66.8239C52.8053 67.319 53.8323 68.0934 54.6292 69.0789C55.4261 70.0645 55.9684 71.2308 56.2083 72.4753C56.2708 72.787 56.2632 73.1088 56.1862 73.4172C56.1091 73.7257 55.9645 74.0132 55.7628 74.2589V74.2583ZM60 75C59.4511 74.9836 58.9186 74.809 58.4666 74.4972C58.7594 73.6966 58.8269 72.831 58.6617 71.9947C58.3584 70.4343 57.6961 68.966 56.7272 67.7059C55.7583 66.4457 54.5094 65.4284 53.0794 64.7344C52.4468 62.5695 51.9315 60.3721 51.5358 58.1517C53.2619 57.6673 57.0905 57.0153 62.1047 58.6866C62.2619 58.7449 62.4292 58.771 62.5967 58.7634C62.7642 58.7557 62.9285 58.7144 63.0797 58.642C63.2309 58.5695 63.366 58.4674 63.477 58.3416C63.5879 58.2159 63.6724 58.0691 63.7254 57.91C63.7785 57.751 63.799 57.5829 63.7857 57.4157C63.7724 57.2485 63.7256 57.0858 63.6481 56.9371C63.5707 56.7884 63.4641 56.6568 63.3347 56.5501C63.2053 56.4435 63.0558 56.3639 62.895 56.3163L62.8811 56.3117L62.8634 56.3062C57.483 54.5203 53.3009 55.0934 51.1225 55.6681C50.4027 50.7603 50.0287 45.808 50.0031 40.8478C51.5311 40.3281 55.4839 39.3977 60.8544 41.1878C61.0116 41.2462 61.1789 41.2723 61.3464 41.2646C61.5139 41.2569 61.6782 41.2157 61.8294 41.1432C61.9806 41.0708 62.1157 40.9686 62.2266 40.8429C62.3376 40.7171 62.4221 40.5704 62.4751 40.4113C62.5281 40.2522 62.5486 40.0841 62.5354 39.917C62.5221 39.7498 62.4753 39.587 62.3978 39.4383C62.3204 39.2896 62.2137 39.158 62.0844 39.0514C61.955 38.9447 61.8054 38.8652 61.6447 38.8175L61.6309 38.8131L61.6128 38.8073C56.3514 37.0614 52.2359 37.6309 50.0127 38.2363C50.0681 33.653 50.4249 29.0784 51.0808 24.542C52.5056 24.0733 56.5877 23.1003 62.1041 24.9391C62.2613 24.9974 62.4286 25.0235 62.5961 25.0159C62.7636 25.0082 62.9279 24.9669 63.0791 24.8945C63.2303 24.822 63.3654 24.7199 63.4763 24.5941C63.5873 24.4684 63.6718 24.3216 63.7248 24.1625C63.7778 24.0035 63.7983 23.8354 63.7851 23.6682C63.7718 23.501 63.725 23.3383 63.6475 23.1896C63.57 23.0409 63.4634 22.9093 63.334 22.8026C63.2047 22.696 63.0551 22.6164 62.8944 22.5688L62.8805 22.5642L62.8628 22.5588C57.8014 20.8788 53.802 21.2864 51.532 21.8192C51.9605 19.4287 52.5301 17.0656 53.238 14.7423C55.1312 8.64062 57.6587 5 60 5C62.3413 5 64.8687 8.64062 66.7611 14.7378C68.8498 21.4688 70 30.4394 70 40C70 49.5606 68.8498 58.532 66.7611 65.2622C64.8687 71.3594 62.3413 75 60 75ZM71.7611 65.2622C69.8688 71.3594 67.3412 75 65 75H64.7095C66.3941 73.0733 67.8919 70.0533 69.1488 66.0031C71.3098 59.0397 72.5 49.8048 72.5 40C72.5 30.1952 71.3098 20.9603 69.1488 13.9969C67.8919 9.94672 66.3941 6.92672 64.7095 5H65C67.3412 5 69.8688 8.64062 71.7611 14.7378C73.8498 21.4688 75 30.4394 75 40C75 49.5606 73.8498 58.532 71.7611 65.2622Z" fill="#37424D"/>
</svg>
