<svg width="80" height="52" viewBox="0 0 80 52" fill="none" xmlns="http://www.w3.org/2000/svg">
<path d="M79.8122 36.6619L75.8428 13.7297C74.3626 5.16323 66.2184 -0.581504 57.6519 0.89866C56.9449 1.02089 56.2472 1.19124 55.5634 1.4084C52.4505 2.38663 49.7239 4.31838 47.7687 6.93077C42.6792 8.13787 37.3808 8.16536 32.279 7.01102C30.3218 4.35999 27.574 2.39814 24.4309 1.4084L24.3684 1.39056C16.075 -1.2079 7.2453 3.40888 4.64703 11.7023C4.43934 12.3651 4.27587 13.0409 4.15754 13.7253L0.184983 36.6589C-0.993687 43.4835 3.58334 49.9713 10.4077 51.1497C11.1155 51.272 11.8326 51.3331 12.5509 51.3327C16.8987 51.3342 20.9342 49.0733 23.2033 45.3645L27.8103 42.4057C35.1565 37.6975 44.5717 37.6975 51.9179 42.4057L56.9544 45.6394C60.7319 51.4401 68.4964 53.0804 74.2972 49.3029C75.2006 48.7146 76.0243 48.0122 76.7478 47.2132C79.348 44.3603 80.4797 40.4637 79.8122 36.6619ZM69.0804 48.2201C67.8486 48.4329 66.5871 48.4025 65.3672 48.1301C62.8408 47.5617 60.6511 45.9968 59.295 43.7907C59.1785 43.5999 59.0206 43.438 58.8328 43.3166L53.5259 39.8986C45.2003 34.5598 34.5279 34.5598 26.2023 39.8986L21.3056 43.0462C21.1061 43.1744 20.9405 43.3488 20.8226 43.5544C18.1883 48.1302 12.3432 49.7039 7.76748 47.0696C4.29352 45.0695 2.43625 41.1148 3.11559 37.1642L7.07904 14.235C7.70693 10.6002 9.87683 7.41469 13.0294 5.49965H13.0265C16.1792 3.58369 20.0071 3.12578 23.5228 4.24389L23.5778 4.26024C26.2606 5.11754 28.5799 6.84681 30.1672 9.17331C30.3736 9.47462 30.6835 9.68936 31.0381 9.77667C36.9495 11.216 43.1235 11.1848 49.02 9.68602C49.3674 9.59871 49.6707 9.38731 49.873 9.09158C51.471 6.78606 53.7917 5.07871 56.4684 4.23943C63.1873 2.10334 70.3657 5.81861 72.5017 12.5375C72.6779 13.0918 72.816 13.6575 72.9152 14.2305L76.8771 37.1642C77.7772 42.3702 74.2865 47.32 69.0804 48.2201Z" fill="#37424D"/>
<path d="M66.6136 18.4983C64.1513 18.4983 62.1553 20.4943 62.1553 22.9566C62.1553 25.4189 64.1513 27.415 66.6136 27.415C69.0759 27.415 71.0719 25.4189 71.0719 22.9566C71.0719 20.4943 69.0759 18.4983 66.6136 18.4983ZM66.6136 24.4427C65.7929 24.4427 65.1275 23.7773 65.1275 22.9566C65.1275 22.1359 65.7929 21.4705 66.6136 21.4705C67.4343 21.4705 68.0997 22.1359 68.0997 22.9566C68.0997 23.7773 67.4343 24.4427 66.6136 24.4427Z" fill="#37424D"/>
<path d="M56.2116 22.9566C56.2116 20.4943 54.2155 18.4983 51.7532 18.4983C49.2909 18.4983 47.2949 20.4943 47.2949 22.9566C47.2949 25.4189 49.2909 27.415 51.7532 27.415C54.2155 27.415 56.2116 25.4189 56.2116 22.9566ZM51.7532 24.4427C50.9325 24.4427 50.2671 23.7773 50.2671 22.9566C50.2671 22.1359 50.9325 21.4705 51.7532 21.4705C52.5739 21.4705 53.2393 22.1359 53.2393 22.9566C53.2393 23.7773 52.5739 24.4427 51.7532 24.4427Z" fill="#37424D"/>
<path d="M59.1849 19.985C61.6472 19.985 63.6432 17.989 63.6432 15.5267C63.6432 13.0644 61.6472 11.0684 59.1849 11.0684C56.7226 11.0684 54.7266 13.0644 54.7266 15.5267C54.7266 17.989 56.7226 19.985 59.1849 19.985ZM59.1849 14.0406C60.0056 14.0406 60.671 14.706 60.671 15.5267C60.671 16.3474 60.0056 17.0128 59.1849 17.0128C58.3642 17.0128 57.6988 16.3474 57.6988 15.5267C57.6988 14.706 58.364 14.0406 59.1849 14.0406Z" fill="#37424D"/>
<path d="M59.1849 25.9285C56.7226 25.9285 54.7266 27.9245 54.7266 30.3868C54.7266 32.8491 56.7226 34.8451 59.1849 34.8451C61.6472 34.8451 63.6432 32.8491 63.6432 30.3868C63.6432 27.9245 61.6472 25.9285 59.1849 25.9285ZM59.1849 31.8729C58.3642 31.8729 57.6988 31.2075 57.6988 30.3868C57.6988 29.5661 58.3642 28.9007 59.1849 28.9007C60.0056 28.9007 60.671 29.5661 60.671 30.3868C60.671 31.2075 60.0056 31.8729 59.1849 31.8729Z" fill="#37424D"/>
<path d="M36.8929 30.3879H33.9207C33.1 30.3879 32.4346 31.0533 32.4346 31.874C32.4346 32.6947 33.1 33.3601 33.9207 33.3601H36.8929C37.7136 33.3601 38.379 32.6947 38.379 31.874C38.379 31.0533 37.7136 30.3879 36.8929 30.3879Z" fill="#37424D"/>
<path d="M45.8089 30.3879H42.8367C42.016 30.3879 41.3506 31.0533 41.3506 31.874C41.3506 32.6947 42.016 33.3601 42.8367 33.3601H45.8089C46.6296 33.3601 47.295 32.6947 47.295 31.874C47.295 31.0533 46.6296 30.3879 45.8089 30.3879Z" fill="#37424D"/>
<path d="M29.4624 18.4986H26.4902V15.5264C26.4902 14.7057 25.8248 14.0403 25.0041 14.0403H19.0597C18.239 14.0403 17.5736 14.7057 17.5736 15.5264V18.4986H14.6013C13.7806 18.4986 13.1152 19.164 13.1152 19.9847V25.9292C13.1152 26.7499 13.7806 27.4153 14.6013 27.4153H17.5736V30.3875C17.5736 31.2082 18.239 31.8736 19.0597 31.8736H25.0041C25.8248 31.8736 26.4902 31.2082 26.4902 30.3875V27.4153H29.4624C30.2831 27.4153 30.9485 26.7499 30.9485 25.9292V19.9847C30.9485 19.164 30.2831 18.4986 29.4624 18.4986ZM27.9763 24.443H25.0041C24.1834 24.443 23.518 25.1084 23.518 25.9292V28.9014H20.5458V25.9292C20.5458 25.1084 19.8804 24.443 19.0597 24.443H16.0874V21.4708H19.0597C19.8804 21.4708 20.5458 20.8054 20.5458 19.9847V17.0125H23.518V19.9847C23.518 20.8054 24.1834 21.4708 25.0041 21.4708H27.9763V24.443Z" fill="#37424D"/>
</svg>
