<svg width="80" height="80" viewBox="0 0 80 80" fill="none" xmlns="http://www.w3.org/2000/svg">
<path d="M73.75 7.5H68.75V3.75C68.75 3.41848 68.6183 3.10054 68.3839 2.86612C68.1495 2.6317 67.8315 2.5 67.5 2.5H62.5C62.1685 2.5 61.8506 2.6317 61.6161 2.86612C61.3817 3.10054 61.25 3.41848 61.25 3.75V7.5H56.25C55.2558 7.50112 54.3026 7.89656 53.5996 8.59958C52.8966 9.3026 52.5011 10.2558 52.5 11.25V16.25C52.5 16.5815 52.6317 16.8995 52.8661 17.1339C53.1006 17.3683 53.4185 17.5 53.75 17.5H53.7535C52.9387 18.5803 52.4986 19.8969 52.5 21.25V60H48.7911C49.9059 56.6431 50.2563 53.0796 49.8166 49.5699C49.377 46.0602 48.1584 42.6931 46.25 39.715V20C46.2467 17.0173 45.0603 14.1578 42.9513 12.0487C40.8422 9.93969 37.9827 8.75335 35 8.75H17.5C14.5174 8.75335 11.6578 9.93969 9.54877 12.0487C7.43972 14.1578 6.25338 17.0173 6.25003 20V39.6777C3.30809 44.2735 2.03719 49.7418 2.65077 55.164C3.26434 60.5863 5.72502 65.6323 9.61956 69.4545C10.7875 70.6077 12.3635 71.2529 14.0047 71.25H17.5V73.75C17.5011 74.7442 17.8966 75.6974 18.5996 76.4004C19.3026 77.1034 20.2558 77.4989 21.25 77.5H31.25C32.2442 77.4989 33.1974 77.1034 33.9004 76.4004C34.6035 75.6974 34.9989 74.7442 35 73.75V72.5H55V73.75C55.0011 74.7442 55.3966 75.6974 56.0996 76.4004C56.8026 77.1034 57.7558 77.4989 58.75 77.5H68.75C69.7442 77.4989 70.6974 77.1034 71.4004 76.4004C72.1035 75.6974 72.4989 74.7442 72.5 73.75V67.5H73.75C74.7442 67.4989 75.6974 67.1034 76.4004 66.4004C77.1035 65.6974 77.4989 64.7442 77.5 63.75V21.25C77.5014 19.8969 77.0613 18.5803 76.2466 17.5H76.25C76.5815 17.5 76.8995 17.3683 77.1339 17.1339C77.3683 16.8995 77.5 16.5815 77.5 16.25V11.25C77.4989 10.2558 77.1035 9.3026 76.4004 8.59958C75.6974 7.89656 74.7442 7.50112 73.75 7.5ZM63.75 5H66.25V7.5H63.75V5ZM55 11.25C55.0004 10.9186 55.1322 10.6009 55.3665 10.3665C55.6009 10.1322 55.9186 10.0004 56.25 10H73.75C74.0814 10.0004 74.3992 10.1322 74.6335 10.3665C74.8678 10.6009 74.9996 10.9186 75 11.25V15H55V11.25ZM42.9425 35.6406C41.6726 34.3822 40.2664 33.2691 38.75 32.322V31.25H43.75V36.4783C43.4885 36.1933 43.2193 35.9141 42.9425 35.6406ZM13.75 28.75H8.75002V26.25H13.75V28.75ZM38.75 26.25H43.75V28.75H38.75V26.25ZM36.25 30.9639C33.1727 29.5264 29.821 28.7711 26.4246 28.75C26.3661 28.75 26.3085 28.75 26.2502 28.75C22.7966 28.7434 19.3834 29.4927 16.2502 30.9455V22.5C16.2513 21.5058 16.6467 20.5526 17.3498 19.8496C18.0528 19.1466 19.006 18.7511 20.0002 18.75H32.5002C33.4944 18.7511 34.4476 19.1466 35.1506 19.8496C35.8536 20.5526 36.2491 21.5058 36.2502 22.5L36.25 30.9639ZM17.5 11.25H35C37.3199 11.2526 39.5439 12.1753 41.1843 13.8157C42.8247 15.4561 43.7474 17.6802 43.75 20V23.75H38.75V22.5C38.7482 20.843 38.0891 19.2543 36.9174 18.0826C35.7457 16.9109 34.1571 16.2519 32.5 16.25H20C18.343 16.2519 16.7544 16.9109 15.5827 18.0826C14.411 19.2543 13.7519 20.843 13.75 22.5V23.75H8.75002V20C8.75263 17.6802 9.67534 15.4561 11.3157 13.8157C12.9561 12.1753 15.1802 11.2526 17.5 11.25ZM8.75002 31.25H13.75V32.2969C12.2172 33.2503 10.7972 34.374 9.5169 35.6466C9.25409 35.907 8.99846 36.173 8.75002 36.4445V31.25ZM14.0047 68.75C13.0187 68.7514 12.0719 68.3633 11.3707 67.6702C8.35789 64.7149 6.2933 60.9295 5.44002 56.7965C4.58674 52.6635 4.98343 48.3699 6.57952 44.4632C8.17561 40.5565 10.8988 37.2134 14.402 34.8602C17.9053 32.507 22.0298 31.2502 26.25 31.25C26.3019 31.25 26.3542 31.25 26.4063 31.25C29.8298 31.2765 33.1962 32.1294 36.2193 33.7362C39.2424 35.343 41.8327 37.6562 43.7699 40.479C45.7071 43.3018 46.9339 46.5507 47.3459 49.9494C47.7579 53.3481 47.343 56.7961 46.1364 60H35V58.75C34.9989 57.7558 34.6035 56.8026 33.9004 56.0996C33.1974 55.3966 32.2442 55.0011 31.25 55H21.25C20.2558 55.0011 19.3026 55.3966 18.5996 56.0996C17.8966 56.8026 17.5011 57.7558 17.5 58.75V68.75H14.0047ZM32.5 73.75C32.4997 74.0814 32.3678 74.3991 32.1335 74.6335C31.8992 74.8678 31.5814 74.9996 31.25 75H21.25C20.9186 74.9996 20.6009 74.8678 20.3666 74.6335C20.1322 74.3991 20.0004 74.0814 20 73.75V58.75C20.0004 58.4186 20.1322 58.1009 20.3666 57.8665C20.6009 57.6322 20.9186 57.5004 21.25 57.5H31.25C31.5814 57.5004 31.8992 57.6322 32.1335 57.8665C32.3678 58.1009 32.4997 58.4186 32.5 58.75V73.75ZM35 70V62.5H55V70H35ZM70 73.75C69.9996 74.0814 69.8678 74.3991 69.6335 74.6335C69.3992 74.8678 69.0814 74.9996 68.75 75H58.75C58.4186 74.9996 58.1009 74.8678 57.8665 74.6335C57.6322 74.3991 57.5004 74.0814 57.5 73.75V58.75C57.5004 58.4186 57.6322 58.1009 57.8665 57.8665C58.1009 57.6322 58.4186 57.5004 58.75 57.5H68.75C69.0814 57.5004 69.3992 57.6322 69.6335 57.8665C69.8678 58.1009 69.9996 58.4186 70 58.75V73.75ZM73.75 65H72.5V58.75C72.4989 57.7558 72.1035 56.8026 71.4004 56.0996C70.6974 55.3966 69.7442 55.0011 68.75 55H58.75C57.7558 55.0011 56.8026 55.3966 56.0996 56.0996C55.3966 56.8026 55.0011 57.7558 55 58.75V32.5H75V63.75C74.9996 64.0814 74.8678 64.3991 74.6335 64.6335C74.3992 64.8678 74.0814 64.9996 73.75 65ZM75 21.25V30H55V21.25C55.0011 20.2558 55.3966 19.3026 56.0996 18.5996C56.8026 17.8966 57.7558 17.5011 58.75 17.5H71.25C72.2442 17.5011 73.1974 17.8966 73.9004 18.5996C74.6035 19.3026 74.9989 20.2558 75 21.25Z" fill="#37424D"/>
</svg>
