<svg width="78" height="76" viewBox="0 0 78 76" fill="none" xmlns="http://www.w3.org/2000/svg">
<path d="M71.5 45.5V41.75C71.4983 40.0929 70.8393 38.5042 69.6676 37.3324C68.4958 36.1607 66.9071 35.5017 65.25 35.5H44C43.0292 35.4999 42.0718 35.7262 41.2038 36.161C40.3358 36.5959 39.5812 37.2271 39 38.0047C38.4188 37.2271 37.6642 36.5959 36.7962 36.161C35.9282 35.7262 34.9708 35.4999 34 35.5H12.75C11.0929 35.5017 9.50415 36.1607 8.33241 37.3324C7.16067 38.5042 6.50165 40.0929 6.5 41.75V45.5C4.8429 45.5017 3.25415 46.1607 2.08241 47.3324C0.910666 48.5042 0.251655 50.0929 0.25 51.75V74.25C0.25 74.5815 0.381696 74.8995 0.616116 75.1339C0.850537 75.3683 1.16848 75.5 1.5 75.5H76.5C76.8315 75.5 77.1495 75.3683 77.3839 75.1339C77.6183 74.8995 77.75 74.5815 77.75 74.25V51.75C77.7483 50.0929 77.0893 48.5042 75.9176 47.3324C74.7458 46.1607 73.1571 45.5017 71.5 45.5ZM12.75 73H2.75V51.75C2.75132 50.7558 3.14684 49.8028 3.84981 49.0998C4.55279 48.3968 5.50584 48.0013 6.5 48H9C9.99416 48.0013 10.9472 48.3968 11.6502 49.0998C12.3532 49.8028 12.7487 50.7558 12.75 51.75V73ZM9 45.5V41.75C9.00132 40.7558 9.39684 39.8028 10.0998 39.0998C10.8028 38.3968 11.7558 38.0013 12.75 38H34C34.9942 38.0013 35.9472 38.3968 36.6502 39.0998C37.3532 39.8028 37.7487 40.7558 37.75 41.75V56.7531C36.6696 55.9387 35.353 55.4987 34 55.5H19C17.647 55.4987 16.3304 55.9387 15.25 56.7531V51.75C15.2483 50.0929 14.5893 48.5042 13.4176 47.3324C12.2458 46.1607 10.6571 45.5017 9 45.5ZM37.75 61.75V65.5H15.25V61.75C15.2513 60.7558 15.6468 59.8028 16.3498 59.0998C17.0528 58.3968 18.0058 58.0013 19 58H34C34.9942 58.0013 35.9472 58.3968 36.6502 59.0998C37.3532 59.8028 37.7487 60.7558 37.75 61.75ZM62.75 73H15.25V68H62.75V73ZM62.75 65.5H40.25V61.75C40.2513 60.7558 40.6468 59.8028 41.3498 59.0998C42.0528 58.3968 43.0058 58.0013 44 58H59C59.9942 58.0013 60.9472 58.3968 61.6502 59.0998C62.3532 59.8028 62.7487 60.7558 62.75 61.75V65.5ZM62.75 51.75V56.7531C61.6696 55.9387 60.353 55.4987 59 55.5H44C42.647 55.4987 41.3304 55.9387 40.25 56.7531V41.75C40.2513 40.7558 40.6468 39.8028 41.3498 39.0998C42.0528 38.3968 43.0058 38.0013 44 38H65.25C66.2442 38.0013 67.1972 38.3968 67.9002 39.0998C68.6032 39.8028 68.9987 40.7558 69 41.75V45.5C67.3429 45.5017 65.7542 46.1607 64.5824 47.3324C63.4107 48.5042 62.7517 50.0929 62.75 51.75ZM75.25 73H65.25V51.75C65.2513 50.7558 65.6468 49.8028 66.3498 49.0998C67.0528 48.3968 68.0058 48.0013 69 48H71.5C72.4942 48.0013 73.4472 48.3968 74.1502 49.0998C74.8532 49.8028 75.2487 50.7558 75.25 51.75V73Z" fill="#37424D"/>
<path d="M57.75 0.5H20.25C19.9185 0.5 19.6005 0.631696 19.3661 0.866116C19.1317 1.10054 19 1.41848 19 1.75V29.25C19 29.5815 19.1317 29.8995 19.3661 30.1339C19.6005 30.3683 19.9185 30.5 20.25 30.5H57.75C58.0815 30.5 58.3995 30.3683 58.6339 30.1339C58.8683 29.8995 59 29.5815 59 29.25V1.75C59 1.41848 58.8683 1.10054 58.6339 0.866116C58.3995 0.631696 58.0815 0.5 57.75 0.5ZM56.5 28H21.5V3H56.5V28Z" fill="#37424D"/>
<path d="M54 4.25H24C23.6685 4.25 23.3505 4.3817 23.1161 4.61612C22.8817 4.85054 22.75 5.16848 22.75 5.5V25.5C22.75 25.8315 22.8817 26.1495 23.1161 26.3839C23.3505 26.6183 23.6685 26.75 24 26.75H54C54.3315 26.75 54.6495 26.6183 54.8839 26.3839C55.1183 26.1495 55.25 25.8315 55.25 25.5V5.5C55.25 5.16848 55.1183 4.85054 54.8839 4.61612C54.6495 4.3817 54.3315 4.25 54 4.25ZM29.1688 24.25L32.75 19.9531L36.3312 24.25H29.1688ZM39.5859 24.25L36.9813 21.125L42.0734 15.0141L49 24.25H39.5859ZM52.75 24.25H52.125L43.125 12.25C43.0118 12.099 42.8659 11.9755 42.6982 11.889C42.5305 11.8024 42.3453 11.7549 42.1566 11.7501C41.968 11.7453 41.7806 11.7833 41.6087 11.8612C41.4368 11.9391 41.2848 12.0549 41.1641 12.2L35.3547 19.1719L33.7109 17.2C33.5935 17.0591 33.4466 16.9458 33.2806 16.868C33.1145 16.7903 32.9334 16.75 32.75 16.75C32.5666 16.75 32.3855 16.7903 32.2194 16.868C32.0534 16.9458 31.9065 17.0591 31.7891 17.2L25.9141 24.25H25.25V6.75H52.75V24.25Z" fill="#37424D"/>
<path d="M32.75 15.5C33.4917 15.5 34.2167 15.2801 34.8334 14.868C35.4501 14.456 35.9307 13.8703 36.2145 13.1851C36.4984 12.4998 36.5726 11.7458 36.4279 11.0184C36.2832 10.291 35.9261 9.6228 35.4016 9.09835C34.8772 8.5739 34.209 8.21675 33.4816 8.07206C32.7542 7.92736 32.0002 8.00162 31.3149 8.28545C30.6297 8.56928 30.044 9.04993 29.632 9.66661C29.2199 10.2833 29 11.0083 29 11.75C29.0011 12.7442 29.3966 13.6974 30.0996 14.4004C30.8026 15.1034 31.7558 15.4989 32.75 15.5ZM32.75 10.5C32.9972 10.5 33.2389 10.5733 33.4445 10.7107C33.65 10.848 33.8102 11.0432 33.9048 11.2716C33.9995 11.5001 34.0242 11.7514 33.976 11.9939C33.9277 12.2363 33.8087 12.4591 33.6339 12.6339C33.4591 12.8087 33.2363 12.9277 32.9939 12.976C32.7514 13.0242 32.5001 12.9995 32.2716 12.9048C32.0432 12.8102 31.848 12.65 31.7107 12.4445C31.5733 12.2389 31.5 11.9972 31.5 11.75C31.5004 11.4186 31.6322 11.1009 31.8665 10.8665C32.1009 10.6322 32.4186 10.5004 32.75 10.5Z" fill="#37424D"/>
</svg>
