<svg width="80" height="80" viewBox="0 0 80 80" fill="none" xmlns="http://www.w3.org/2000/svg">
<path d="M72.2442 13.4685H7.75449C5.27871 13.4685 3.26465 15.4826 3.26465 17.9584V57.1421H5.71371V17.9584C5.71371 16.833 6.62918 15.9176 7.75449 15.9176H72.2443C73.3696 15.9176 74.2851 16.833 74.2851 17.9584V57.1421H76.734V17.9584C76.734 15.4826 74.7199 13.4685 72.2442 13.4685Z" fill="#37424D"/>
<path d="M68.9803 19.1843H11.0212C9.44594 19.1843 8.16406 20.466 8.16406 22.0415V55.919H71.8375V22.0414C71.8375 20.466 70.5558 19.1843 68.9803 19.1843ZM69.3886 53.4699H10.613V22.0414C10.613 21.8164 10.7961 21.6332 11.0211 21.6332H68.9803C69.2053 21.6332 69.3884 21.8164 69.3884 22.0414V53.4699H69.3886Z" fill="#37424D"/>
<path d="M0 59.1843V66.5312H80V59.1843H0ZM77.5511 64.0821H2.44891V61.6332H30.8844L31.9183 63.1843H48.0816L49.1155 61.6332H77.5509V64.0821H77.5511Z" fill="#37424D"/>
<path d="M39.9998 18.3674C40.4506 18.3674 40.8161 18.0019 40.8161 17.5511C40.8161 17.1003 40.4506 16.7349 39.9998 16.7349C39.549 16.7349 39.1836 17.1003 39.1836 17.5511C39.1836 18.0019 39.549 18.3674 39.9998 18.3674Z" fill="#37424D"/>
</svg>
