<svg width="31" height="24" viewBox="0 0 31 24" fill="none" xmlns="http://www.w3.org/2000/svg">
<path d="M5.6282 23.9475V22.3545C5.6282 21.7439 5.25651 21.3457 4.61933 21.3457C4.30074 21.3457 3.9556 21.4519 3.71665 21.797C3.53081 21.505 3.26531 21.3457 2.86707 21.3457C2.60158 21.3457 2.33609 21.4253 2.1237 21.7174V21.3988H1.56616V23.9475H2.1237V22.5404C2.1237 22.089 2.36264 21.8766 2.73433 21.8766C3.10602 21.8766 3.29186 22.1156 3.29186 22.5404V23.9475H3.8494V22.5404C3.8494 22.089 4.11489 21.8766 4.46003 21.8766C4.83172 21.8766 5.01757 22.1156 5.01757 22.5404V23.9475H5.6282ZM13.885 21.3988H12.9823V20.6288H12.4248V21.3988H11.9204V21.9032H12.4248V23.0714C12.4248 23.6554 12.6638 24.0006 13.3009 24.0006C13.5399 24.0006 13.8054 23.9209 13.9912 23.8147L13.8319 23.3369C13.6726 23.4431 13.4868 23.4696 13.354 23.4696C13.0885 23.4696 12.9823 23.3103 12.9823 23.0448V21.9032H13.885V21.3988ZM18.6108 21.3457C18.2922 21.3457 18.0798 21.505 17.9471 21.7174V21.3988H17.3895V23.9475H17.9471V22.5138C17.9471 22.089 18.1329 21.8501 18.478 21.8501C18.5842 21.8501 18.717 21.8766 18.8232 21.9032L18.9825 21.3722C18.8763 21.3457 18.717 21.3457 18.6108 21.3457ZM11.469 21.6112C11.2035 21.4253 10.8319 21.3457 10.4336 21.3457C9.79643 21.3457 9.37165 21.6643 9.37165 22.1687C9.37165 22.5935 9.69023 22.8324 10.2478 22.9121L10.5133 22.9386C10.8053 22.9917 10.9646 23.0714 10.9646 23.2041C10.9646 23.39 10.7522 23.5227 10.3805 23.5227C10.0088 23.5227 9.71679 23.39 9.53094 23.2572L9.26545 23.682C9.55749 23.8944 9.95573 24.0006 10.354 24.0006C11.0974 24.0006 11.5221 23.6555 11.5221 23.1776C11.5221 22.7262 11.177 22.4873 10.646 22.4076L10.3805 22.3811C10.1416 22.3545 9.95573 22.3014 9.95573 22.1421C9.95573 21.9563 10.1416 21.8501 10.4336 21.8501C10.7522 21.8501 11.0708 21.9828 11.2301 22.0625L11.469 21.6112ZM26.2835 21.3457C25.9649 21.3457 25.7526 21.505 25.6198 21.7174V21.3988H25.0623V23.9475H25.6198V22.5138C25.6198 22.089 25.8056 21.8501 26.1508 21.8501C26.257 21.8501 26.3897 21.8766 26.4959 21.9032L26.6552 21.3722C26.549 21.3457 26.3897 21.3457 26.2835 21.3457ZM19.1683 22.6731C19.1683 23.4431 19.6993 24.0006 20.5223 24.0006C20.894 24.0006 21.1595 23.9209 21.425 23.7086L21.1595 23.2572C20.9471 23.4165 20.7347 23.4962 20.4958 23.4962C20.0445 23.4962 19.7259 23.1776 19.7259 22.6731C19.7259 22.1952 20.0445 21.8767 20.4958 21.8501C20.7347 21.8501 20.9471 21.9297 21.1595 22.089L21.425 21.6377C21.1595 21.4253 20.894 21.3457 20.5223 21.3457C19.6993 21.3457 19.1683 21.9032 19.1683 22.6731ZM24.3189 22.6731V21.3988H23.7614V21.7174C23.5755 21.4784 23.31 21.3457 22.9649 21.3457C22.248 21.3457 21.6905 21.9032 21.6905 22.6731C21.6905 23.4431 22.248 24.0006 22.9649 24.0006C23.3366 24.0006 23.6021 23.8678 23.7614 23.6289V23.9475H24.3189V22.6731ZM22.2746 22.6731C22.2746 22.2218 22.5666 21.8501 23.0445 21.8501C23.4959 21.8501 23.8144 22.1952 23.8144 22.6731C23.8144 23.1245 23.4959 23.4962 23.0445 23.4962C22.5666 23.4696 22.2746 23.1245 22.2746 22.6731ZM15.6107 21.3457C14.8673 21.3457 14.3364 21.8766 14.3364 22.6731C14.3364 23.4696 14.8673 24.0006 15.6373 24.0006C16.009 24.0006 16.3807 23.8944 16.6727 23.6555L16.4072 23.2572C16.1948 23.4165 15.9293 23.5227 15.6638 23.5227C15.3187 23.5227 14.9735 23.3634 14.8939 22.9121H16.7789C16.7789 22.8324 16.7789 22.7793 16.7789 22.6997C16.8054 21.8766 16.3276 21.3457 15.6107 21.3457ZM15.6107 21.8236C15.9559 21.8236 16.1948 22.0359 16.2479 22.4342H14.9204C14.9735 22.089 15.2125 21.8236 15.6107 21.8236ZM29.4429 22.6731V20.3899H28.8854V21.7174C28.6995 21.4784 28.434 21.3457 28.0889 21.3457C27.3721 21.3457 26.8145 21.9032 26.8145 22.6731C26.8145 23.4431 27.3721 24.0006 28.0889 24.0006C28.4606 24.0006 28.7261 23.8678 28.8854 23.6289V23.9475H29.4429V22.6731ZM27.3986 22.6731C27.3986 22.2218 27.6906 21.8501 28.1685 21.8501C28.6199 21.8501 28.9385 22.1952 28.9385 22.6731C28.9385 23.1245 28.6199 23.4962 28.1685 23.4962C27.6906 23.4696 27.3986 23.1245 27.3986 22.6731ZM8.76102 22.6731V21.3988H8.20348V21.7174C8.01763 21.4784 7.75214 21.3457 7.407 21.3457C6.69017 21.3457 6.13263 21.9032 6.13263 22.6731C6.13263 23.4431 6.69017 24.0006 7.407 24.0006C7.77869 24.0006 8.04418 23.8678 8.20348 23.6289V23.9475H8.76102V22.6731ZM6.69017 22.6731C6.69017 22.2218 6.98221 21.8501 7.4601 21.8501C7.91143 21.8501 8.23003 22.1952 8.23003 22.6731C8.23003 23.1245 7.91143 23.4962 7.4601 23.4962C6.98221 23.4696 6.69017 23.1245 6.69017 22.6731Z" fill="black"/>
<path d="M19.646 2.04468H11.283V17.0716H19.646V2.04468Z" fill="#FF5F00"/>
<path d="M11.8144 9.55774C11.8144 6.50457 13.2481 3.79655 15.4517 2.0443C13.8322 0.769932 11.7879 0 9.55774 0C4.27443 0 0 4.27443 0 9.55774C0 14.841 4.27443 19.1155 9.55774 19.1155C11.7879 19.1155 13.8322 18.3456 15.4517 17.0712C13.2481 15.3455 11.8144 12.6109 11.8144 9.55774Z" fill="#EB001B"/>
<path d="M30.9297 9.55798C30.9297 14.8413 26.6553 19.1157 21.372 19.1157C19.1418 19.1157 17.0975 18.3458 15.478 17.0714C17.7082 15.3192 19.1153 12.6111 19.1153 9.55798C19.1153 6.50482 17.6816 3.79679 15.478 2.04454C17.0975 0.770176 19.1418 0.000244141 21.372 0.000244141C26.6553 0.000244141 30.9297 4.30123 30.9297 9.55798Z" fill="#F79E1B"/>
</svg>
