<svg width="80" height="80" viewBox="0 0 80 80" fill="none" xmlns="http://www.w3.org/2000/svg">
<g clip-path="url(#clip0)">
<path d="M45.4769 37.9383C45.7128 38.3997 46.1822 38.6663 46.6675 38.6663C46.8702 38.6663 47.0781 38.6195 47.2716 38.521C47.3502 38.481 55.1982 34.4943 59.0688 33.2716C59.7702 33.049 60.1594 32.2996 59.9368 31.5984C59.7154 30.897 58.9715 30.5064 58.2635 30.7278C54.1862 32.0171 46.3916 35.9771 46.061 36.145C45.4049 36.4783 45.1436 37.2811 45.4769 37.9383Z" fill="#37424D"/>
<path d="M46.6675 22.667C46.8701 22.667 47.0781 22.6203 47.2715 22.5217C47.3501 22.4817 55.1982 18.495 59.0688 17.2724C59.7702 17.0497 60.1594 16.3004 59.9368 15.5991C59.7154 14.8977 58.9714 14.5071 58.2635 14.7285C54.1862 16.0179 46.3915 19.9778 46.0609 20.1458C45.405 20.4791 45.1436 21.2817 45.4769 21.9391C45.7128 22.4003 46.1822 22.667 46.6675 22.667Z" fill="#37424D"/>
<path d="M78.6661 20.0005C77.9288 20.0005 77.3328 20.5978 77.3328 21.3337V73.3333C77.3328 75.5386 75.5382 77.3333 73.3329 77.3333H41.3331V74.2654C43.2772 73.5854 48.341 72.0001 53.333 72.0001C64.9476 72.0001 72.8343 74.5721 72.9129 74.5986C73.3141 74.7319 73.7622 74.6654 74.1129 74.4146C74.4608 74.164 74.6661 73.7613 74.6661 73.3332V14.6672C74.6661 14.0419 74.2329 13.5005 73.6221 13.3658C73.6221 13.3658 72.5768 13.1326 70.7901 12.8044C70.0687 12.6712 69.3715 13.1512 69.2381 13.8738C69.1048 14.5991 69.5834 15.2938 70.3074 15.4271C70.9888 15.5524 71.5594 15.663 71.9994 15.7511V71.5613C68.9781 70.7693 62.2689 69.3334 53.3329 69.3334C47.5235 69.3334 41.817 71.2413 40.0516 71.888C38.4822 71.1948 33.7383 69.3334 27.9996 69.3334C18.8156 69.3334 11.2504 70.848 7.99978 71.6174V15.6991C10.6624 15.0444 18.5264 13.3338 27.9996 13.3338C32.861 13.3338 37.0302 14.8471 38.6663 15.5311V68.0001C38.6663 68.4801 38.9249 68.9241 39.3422 69.1601C39.7595 69.3974 40.2742 69.3907 40.6862 69.1427C40.8183 69.0641 54.0288 61.1734 65.754 57.2655C66.2993 57.0828 66.666 56.5749 66.666 56.0002V1.33391C66.666 0.896565 66.4514 0.487194 66.0914 0.237977C65.734 -0.0113962 65.2754 -0.0687394 64.8634 0.0846968C54.1955 4.08592 43.4011 10.8032 43.2929 10.8699C42.6689 11.2605 42.4783 12.0832 42.8689 12.7073C43.2583 13.3313 44.0809 13.5219 44.7062 13.1313C44.8048 13.0687 54.1955 7.22605 63.9993 3.28342V55.0457C54.898 58.2083 45.3954 63.3723 41.3328 65.6842V14.6672C41.3328 14.1619 41.0475 13.7005 40.5955 13.474C40.3661 13.3607 34.9022 10.6673 27.9996 10.6673C15.9518 10.6673 6.68917 13.274 6.29979 13.3858C5.72777 13.5485 5.33308 14.0726 5.33308 14.6672V73.3335C5.33308 73.7508 5.53043 74.1455 5.86245 74.3975C6.09714 74.5749 6.37979 74.6669 6.66651 74.6669C6.78917 74.6669 6.91182 74.6496 7.03182 74.6149C7.12385 74.5896 16.3438 72.0002 27.9996 72.0002C32.8743 72.0002 37.0396 73.5176 38.6663 74.1988V77.3335H6.66651C4.46122 77.3335 2.66654 75.5388 2.66654 73.3335V21.3339C2.66654 20.598 2.0692 20.0006 1.33327 20.0006C0.597339 20.0006 0 20.598 0 21.3339V73.3335C0 77.0094 2.9906 80.0002 6.66667 80.0002H73.3329C77.0088 80.0002 79.9995 77.0096 79.9995 73.3335V21.3339C79.9994 20.5978 79.4034 20.0005 78.6661 20.0005Z" fill="#37424D"/>
<path d="M45.4769 29.9386C45.7128 30.4 46.1822 30.6665 46.6675 30.6665C46.8702 30.6665 47.0781 30.6198 47.2716 30.5212C47.3502 30.4812 55.1982 26.4945 59.0688 25.2719C59.7702 25.0492 60.1594 24.2999 59.9368 23.5986C59.7154 22.8972 58.9715 22.5066 58.2635 22.728C54.1862 24.0174 46.3916 27.9773 46.061 28.1453C45.4049 28.4786 45.1436 29.2814 45.4769 29.9386Z" fill="#37424D"/>
<path d="M45.4769 45.9393C45.7128 46.4007 46.1822 46.6673 46.6675 46.6673C46.8702 46.6673 47.0781 46.6206 47.2716 46.522C47.3502 46.482 55.1982 42.4953 59.0688 41.2726C59.7702 41.05 60.1594 40.3006 59.9368 39.5994C59.7154 38.8979 58.9715 38.5073 58.2635 38.7287C54.1862 40.0181 46.3916 43.9781 46.061 44.146C45.4049 44.4793 45.1436 45.2821 45.4769 45.9393Z" fill="#37424D"/>
<path d="M32.3039 24.7448C24.0707 22.8128 14.7147 25.2742 14.3214 25.3795C13.6108 25.5701 13.1881 26.3007 13.3787 27.0128C13.5387 27.6087 14.0773 28.0007 14.6655 28.0007C14.7801 28.0007 14.8961 27.986 15.0122 27.9554C15.1015 27.9301 24.1094 25.5607 31.6961 27.3407C32.4094 27.5075 33.1308 27.0634 33.2988 26.3461C33.4666 25.6301 33.0213 24.9128 32.3039 24.7448Z" fill="#37424D"/>
<path d="M32.3039 32.744C24.0707 30.8133 14.7147 33.2733 14.3214 33.3786C13.6108 33.5693 13.1881 34.3 13.3787 35.0119C13.5387 35.6078 14.0773 35.9999 14.6655 35.9999C14.7801 35.9999 14.8961 35.9852 15.0122 35.9545C15.1015 35.9292 24.1094 33.5599 31.6961 35.3399C32.4094 35.5066 33.1308 35.0625 33.2988 34.3452C33.4666 33.6293 33.0213 32.9119 32.3039 32.744Z" fill="#37424D"/>
<path d="M45.4769 53.9391C45.7128 54.4005 46.1822 54.667 46.6675 54.667C46.8702 54.667 47.0781 54.6203 47.2716 54.5217C47.3502 54.4817 55.1982 50.495 59.0688 49.2724C59.7702 49.0497 60.1594 48.3003 59.9368 47.5991C59.7154 46.8979 58.9715 46.5071 58.2635 46.7285C54.1862 48.0178 46.3916 51.9778 46.061 52.1458C45.4049 52.4791 45.1436 53.2819 45.4769 53.9391Z" fill="#37424D"/>
<path d="M32.3039 40.7439C24.0707 38.8133 14.7147 41.2719 14.3214 41.3786C13.6108 41.5693 13.1881 42.3 13.3787 43.0119C13.5387 43.6078 14.0773 44.0013 14.6655 44.0013C14.7801 44.0013 14.8961 43.9853 15.0122 43.9545C15.1015 43.9292 24.1094 41.5599 31.6961 43.3399C32.4094 43.5066 33.1308 43.0625 33.2988 42.3452C33.4666 41.6293 33.0213 40.9119 32.3039 40.7439Z" fill="#37424D"/>
<path d="M32.3039 56.7438C24.0707 54.8118 14.7147 57.2732 14.3214 57.3785C13.6108 57.5691 13.1881 58.2999 13.3787 59.0118C13.5387 59.6077 14.0773 60.0012 14.6655 60.0012C14.7801 60.0012 14.8961 59.9852 15.0122 59.9545C15.1015 59.9291 24.1094 57.5598 31.6961 59.3398C32.4094 59.5051 33.1308 59.0624 33.2988 58.3451C33.4666 57.6291 33.0213 56.9118 32.3039 56.7438Z" fill="#37424D"/>
<path d="M32.3039 48.7441C24.0707 46.8121 14.7147 49.272 14.3214 49.3787C13.6108 49.5694 13.1881 50.3001 13.3787 51.012C13.5387 51.6079 14.0773 52.0014 14.6655 52.0014C14.7801 52.0014 14.8961 51.9854 15.0122 51.9546C15.1015 51.9293 24.1094 49.56 31.6961 51.34C32.4094 51.5067 33.1308 51.0626 33.2988 50.3453C33.4666 49.6294 33.0213 48.912 32.3039 48.7441Z" fill="#37424D"/>
</g>
<defs>
<clipPath id="clip0">
<rect width="80" height="80" fill="white"/>
</clipPath>
</defs>
</svg>
