<svg width="80" height="80" viewBox="0 0 80 80" fill="none" xmlns="http://www.w3.org/2000/svg">
<g clip-path="url(#clip0)">
<path d="M47.5453 6.25C48.2353 6.25 48.7953 5.69 48.7953 5C48.7953 4.31 48.2353 3.75 47.5453 3.75H47.5316C46.8416 3.75 46.2891 4.31 46.2891 5C46.2891 5.69 46.8541 6.25 47.5453 6.25Z" fill="#37424D"/>
<path d="M51.2568 6.25H55.0068C55.6981 6.25 56.2568 5.69 56.2568 5C56.2568 4.31 55.6981 3.75 55.0068 3.75H51.2568C50.5656 3.75 50.0068 4.31 50.0068 5C50.0068 5.69 50.5656 6.25 51.2568 6.25Z" fill="#37424D"/>
<path d="M55.0068 68.75C55.0068 66.6825 53.3243 65 51.2568 65C49.1893 65 47.5068 66.6825 47.5068 68.75C47.5068 70.8175 49.1893 72.5 51.2568 72.5C53.3243 72.5 55.0068 70.8175 55.0068 68.75ZM51.2568 70C50.5668 70 50.0068 69.44 50.0068 68.75C50.0068 68.06 50.5668 67.5 51.2568 67.5C51.9468 67.5 52.5068 68.06 52.5068 68.75C52.5068 69.44 51.9468 70 51.2568 70Z" fill="#37424D"/>
<path d="M14.9932 80H37.5057H43.7444H65.0057C69.8294 80 73.7557 76.0738 73.7557 71.25V7.5025C73.7557 3.3725 70.3994 0.0125 66.2719 0.0025C66.2669 0.0025 66.2619 0 66.2557 0H44.9944H36.2557H13.7432C9.60691 0 6.24316 3.36375 6.24316 7.5V71.25C6.24316 76.0738 10.1694 80 14.9932 80ZM14.9932 77.5C11.9707 77.5 9.44566 75.3425 8.86941 72.4875C10.4482 74.0387 12.6107 75 14.9932 75H29.6119C30.0569 75.9362 30.6607 76.7825 31.3932 77.5H14.9932ZM65.0057 72.5H51.2557H37.5057C34.0594 72.5 31.2557 69.6963 31.2557 66.25V65H51.2557H71.2557V66.25C71.2557 69.6963 68.4519 72.5 65.0057 72.5ZM71.2557 62.5H31.2557V10.0025H71.2557V62.5ZM65.0057 77.5H43.7444H37.5057C34.4832 77.5 31.9582 75.3425 31.3819 72.4875C32.9619 74.0387 35.1232 75 37.5057 75H65.0057C67.3882 75 69.5507 74.0387 71.1294 72.4875C70.5532 75.3425 68.0282 77.5 65.0057 77.5ZM66.2432 2.5C66.2482 2.5 66.2519 2.5025 66.2557 2.5025C69.0132 2.5025 71.2557 4.745 71.2557 7.5025H31.2557V7.5C31.2557 4.7425 33.4982 2.5 36.2557 2.5H44.9944H66.2432ZM13.7432 2.5H30.6807C29.4882 3.82875 28.7557 5.5775 28.7557 7.5V71.25C28.7557 71.6762 28.7957 72.0912 28.8557 72.5H14.9932C11.5469 72.5 8.74316 69.6963 8.74316 66.25V7.5C8.74316 4.7425 10.9857 2.5 13.7432 2.5Z" fill="#37424D"/>
<path d="M18.7441 28.7492C22.1904 28.7492 24.9941 25.9455 24.9941 22.4992V12.5017C24.9941 9.05546 22.1904 6.25171 18.7441 6.25171C15.2979 6.25171 12.4941 9.05546 12.4941 12.5017V22.4992C12.4941 25.9455 15.2979 28.7492 18.7441 28.7492ZM18.7441 26.2492C16.6766 26.2492 14.9941 24.5667 14.9941 22.4992V17.4705C16.0416 18.263 17.3316 18.7517 18.7441 18.7517C20.1566 18.7517 21.4466 18.263 22.4941 17.4705V22.4992C22.4941 24.5667 20.8116 26.2492 18.7441 26.2492ZM18.7441 8.75171C20.8116 8.75171 22.4941 10.4342 22.4941 12.5017C22.4941 14.5692 20.8116 16.2517 18.7441 16.2517C16.6766 16.2517 14.9941 14.5692 14.9941 12.5017C14.9941 10.4342 16.6766 8.75171 18.7441 8.75171Z" fill="#37424D"/>
<path d="M18.7826 13.7517C19.4726 13.7517 20.0326 13.1917 20.0326 12.5017C20.0326 11.8117 19.4726 11.2517 18.7826 11.2517H18.7689C18.0789 11.2517 17.5264 11.8117 17.5264 12.5017C17.5264 13.1917 18.0926 13.7517 18.7826 13.7517Z" fill="#37424D"/>
</g>
<defs>
<clipPath id="clip0">
<rect width="80" height="80" fill="white"/>
</clipPath>
</defs>
</svg>
